<svg width="129" height="129" viewBox="0 0 129 129" fill="none" xmlns="http://www.w3.org/2000/svg">
<path d="M102.125 59.125H26.875C20.9379 59.125 16.125 63.9379 16.125 69.875V107.5C16.125 113.437 20.9379 118.25 26.875 118.25H102.125C108.062 118.25 112.875 113.437 112.875 107.5V69.875C112.875 63.9379 108.062 59.125 102.125 59.125Z" stroke="white" stroke-width="4" stroke-linecap="round" stroke-linejoin="round"/>
<path d="M37.625 59.125V37.625C37.6183 30.9603 40.0883 24.5308 44.5554 19.5847C49.0225 14.6386 55.1681 11.5289 61.7991 10.8591C68.4301 10.1893 75.0734 12.0072 80.4394 15.9601C85.8054 19.9129 89.5113 25.7185 90.8375 32.25V59.125" stroke="white" stroke-width="4" stroke-linecap="round" stroke-linejoin="round"/>
</svg>
